<svg width="29" height="29" viewBox="0 0 29 29" fill="none" xmlns="http://www.w3.org/2000/svg">
<g id="Instagram Icon">
<circle id="Icon Wrap" cx="14.2121" cy="14.2121" r="14.2121" fill="white"/>
<path id="Icon" d="M14.5504 7.61566C16.8091 7.61566 17.077 7.62412 17.9695 7.66501C20.2621 7.76935 21.3329 8.85711 21.4372 11.1327C21.4781 12.0245 21.4859 12.2924 21.4859 14.5511C21.4859 16.8105 21.4774 17.0777 21.4372 17.9695C21.3322 20.243 20.2642 21.3329 17.9695 21.4372C17.077 21.4781 16.8105 21.4866 14.5504 21.4866C12.2917 21.4866 12.0238 21.4781 11.132 21.4372C8.83384 21.3322 7.76864 20.2395 7.66431 17.9688C7.62342 17.077 7.61496 16.8098 7.61496 14.5504C7.61496 12.2917 7.62412 12.0245 7.66431 11.132C7.76935 8.85711 8.83737 7.76864 11.132 7.66431C12.0245 7.62412 12.2917 7.61566 14.5504 7.61566ZM14.5504 6.09082C12.2529 6.09082 11.9653 6.10069 11.0629 6.14158C7.9907 6.28257 6.28328 7.98718 6.14228 11.0622C6.10069 11.9653 6.09082 12.2529 6.09082 14.5504C6.09082 16.8479 6.10069 17.1362 6.14158 18.0386C6.28257 21.1108 7.98718 22.8183 11.0622 22.9593C11.9653 23.0001 12.2529 23.01 14.5504 23.01C16.8479 23.01 17.1362 23.0001 18.0386 22.9593C21.108 22.8183 22.8197 21.1137 22.9585 18.0386C23.0001 17.1362 23.01 16.8479 23.01 14.5504C23.01 12.2529 23.0001 11.9653 22.9593 11.0629C22.8211 7.99352 21.1144 6.28328 18.0393 6.14228C17.1362 6.10069 16.8479 6.09082 14.5504 6.09082V6.09082ZM14.5504 10.2064C12.1514 10.2064 10.2064 12.1514 10.2064 14.5504C10.2064 16.9494 12.1514 18.8951 14.5504 18.8951C16.9494 18.8951 18.8944 16.9501 18.8944 14.5504C18.8944 12.1514 16.9494 10.2064 14.5504 10.2064ZM14.5504 17.3703C12.9931 17.3703 11.7306 16.1084 11.7306 14.5504C11.7306 12.9931 12.9931 11.7306 14.5504 11.7306C16.1077 11.7306 17.3703 12.9931 17.3703 14.5504C17.3703 16.1084 16.1077 17.3703 14.5504 17.3703ZM19.0664 9.01996C18.5053 9.01996 18.0506 9.47466 18.0506 10.0351C18.0506 10.5956 18.5053 11.0503 19.0664 11.0503C19.6269 11.0503 20.0809 10.5956 20.0809 10.0351C20.0809 9.47466 19.6269 9.01996 19.0664 9.01996Z" fill="#041F37"/>
</g>
</svg>
