<svg width="25" height="25" viewBox="0 0 25 25" fill="none" xmlns="http://www.w3.org/2000/svg">
<g id="Icon">
<path id="Icon_2" d="M19 2.08333C19 0.933333 18.104 0 17 0H7C5.896 0 5 0.933333 5 2.08333V22.9167C5 24.0667 5.896 25 7 25H17C18.104 25 19 24.0667 19 22.9167V2.08333ZM10.5 2.08333H13.5C13.776 2.08333 14 2.31667 14 2.60417C14 2.89167 13.776 3.125 13.5 3.125H10.5C10.224 3.125 10 2.89167 10 2.60417C10 2.31667 10.224 2.08333 10.5 2.08333ZM12 22.9167C11.447 22.9167 11 22.45 11 21.875C11 21.3 11.447 20.8333 12 20.8333C12.552 20.8333 12.999 21.3 12.999 21.875C12.999 22.45 12.552 22.9167 12 22.9167ZM17 19.7917H7V5.18333H17V19.7917Z" fill="white"/>
</g>
</svg>
