<svg width="25" height="21" viewBox="0 0 25 21" fill="none" xmlns="http://www.w3.org/2000/svg">
<g id="Icon">
<path id="Icon_2" d="M25 2.48611C24.0802 2.90817 23.0917 3.19242 22.0542 3.32055C23.1135 2.66484 23.9271 1.62582 24.3094 0.387613C23.3187 0.994873 22.2208 1.43632 21.0521 1.67427C20.1177 0.643868 18.7833 0 17.3083 0C13.9969 0 11.5635 3.1935 12.3115 6.50866C8.05 6.28794 4.27083 4.1776 1.74062 0.970109C0.396875 3.35285 1.04375 6.4699 3.32708 8.04835C2.4875 8.02035 1.69583 7.7824 1.00521 7.3851C0.948958 9.84106 2.65208 12.1387 5.11875 12.6502C4.39687 12.8526 3.60625 12.9 2.80208 12.7406C3.45417 14.8466 5.34792 16.3788 7.59375 16.4219C5.4375 18.1693 2.72083 18.95 0 18.6183C2.26979 20.1225 4.96667 21 7.8625 21C17.3854 21 22.7656 12.6868 22.4406 5.23062C23.4427 4.48231 24.3125 3.54881 25 2.48611Z" fill="white"/>
</g>
</svg>
