<svg width="29" height="29" viewBox="0 0 29 29" fill="none" xmlns="http://www.w3.org/2000/svg">
<g id="Twitter Icon">
<circle id="Icon Wrap" cx="14.2121" cy="14.2121" r="14.2121" fill="white"/>
<path id="Icon" d="M23.01 9.12685C22.3875 9.41249 21.7185 9.60486 21.0164 9.69158C21.7333 9.24781 22.2839 8.54464 22.5426 7.70666C21.8722 8.11763 21.1292 8.41639 20.3382 8.57743C19.7058 7.88008 18.8028 7.44434 17.8045 7.44434C15.5635 7.44434 13.9167 9.60559 14.4228 11.8492C11.5388 11.6998 8.98118 10.2716 7.26882 8.10087C6.35941 9.71344 6.7972 11.823 8.34248 12.8912C7.77428 12.8723 7.23851 12.7112 6.77111 12.4423C6.73304 14.1044 7.88566 15.6594 9.55502 16.0056C9.06648 16.1426 8.53141 16.1746 7.98718 16.0668C8.42849 17.4921 9.71012 18.529 11.23 18.5581C9.77074 19.7408 7.93219 20.2691 6.09082 20.0446C7.62694 21.0626 9.4521 21.6565 11.4119 21.6565C17.8567 21.6565 21.4979 16.0303 21.2779 10.9842C21.9561 10.4778 22.5447 9.84606 23.01 9.12685Z" fill="#041F37"/>
</g>
</svg>
